# Blender 4.4.3
# www.blender.org
mtllib Player.mtl
o Spaceship2_Cylinder
v 0.194072 0.987464 -1.282233
v 0.475785 0.585451 -1.282233
v 0.386322 0.550764 -1.282233
v 0.182064 0.842247 -1.282233
v 0.194072 0.987464 -0.782214
v 0.475785 0.585451 -0.782214
v 0.475933 0.196265 -1.282233
v 0.386430 0.268582 -1.282233
v 0.386322 0.550764 -0.781898
v 0.182064 0.842247 -0.781898
v 0.195280 0.953857 0.577001
v 0.225316 0.915672 0.377570
v 0.232724 0.919198 -0.223437
v 0.207886 0.955389 -0.255224
v 0.211051 0.956879 -0.511323
v 0.278701 0.862976 -0.623697
v 0.318647 0.805973 -0.623697
v 0.294849 0.806967 0.377570
v 0.437025 0.580367 0.388792
v 0.475933 0.196265 -0.782214
v 0.225119 -0.000370 -1.282233
v 0.204575 0.126010 -1.282233
v 0.386430 0.268582 -0.781898
v 0.204575 0.126010 -0.781898
v 0.152205 1.120176 -0.769770
v 0.153413 1.086570 0.589445
v 0.430795 0.579550 0.577001
v 0.473867 0.359702 -0.688468
v 0.225119 -0.000370 -0.782214
v 0.151992 0.953836 0.577001
v 0.123841 1.167789 -0.767978
v 0.125049 1.134182 0.591237
v 0.195859 0.937757 0.854720
v 0.444834 0.439302 0.322401
v 0.433124 0.441168 0.643175
v 0.473929 0.195691 -0.688468
v 0.122653 1.078065 0.588383
v 0.102776 1.111431 0.589638
v 0.409243 0.576723 0.854720
v 0.784556 0.381424 0.377570
v 1.190601 0.312394 0.552261
v 0.911905 0.359774 0.377570
v 0.775297 0.344072 -0.623697
v 0.844643 0.336351 -0.623697
v 0.845400 0.336452 -0.623030
v 1.003831 0.300697 -0.688468
v 1.003831 0.189801 -0.688468
v 0.442265 0.172613 -0.366151
v 0.226309 0.000045 0.577001
v 0.122653 1.078065 0.294298
v 0.151992 0.953836 0.282916
v 0.102776 1.111431 0.295554
v 0.191714 0.904979 0.894137
v 0.372700 0.598761 0.894137
v 1.203081 0.312394 -0.366151
v 0.960902 0.332710 -0.511323
v 0.956283 0.353564 -0.255224
v 0.912356 0.360864 -0.223437
v 1.203081 0.178103 -0.366151
v 0.226879 0.004688 0.854720
v 0.427666 0.367932 0.780394
v 0.212774 0.565287 1.503754
v 0.206060 0.589061 1.444629
v 0.191714 0.851458 0.894137
v 0.372700 0.545240 0.894137
v 1.188710 0.300697 0.681725
v 1.917961 0.312394 0.281374
v 1.925798 0.312394 -0.365737
v 1.925798 0.178103 -0.365737
v 0.426899 0.172521 0.643922
v 0.222895 -0.006040 1.503754
v 0.432962 0.183960 0.854720
v 0.206060 0.535540 1.444629
v 0.436510 0.190770 0.779247
v 1.188710 0.189801 0.681725
v 1.914409 0.300697 0.410838
v 1.948873 0.353076 -0.525126
v 1.190601 0.178103 0.552261
v 1.917961 0.178103 0.281374
v 1.948873 0.137421 -0.525126
v 0.335214 0.179152 1.503754
v 0.175684 0.016163 2.551760
v 1.914409 0.189801 0.410838
v 1.942333 0.353076 0.357673
v 1.942333 0.137421 0.357673
v 1.999059 0.309248 -0.525078
v 1.999059 0.181249 -0.525078
v 0.201107 0.179152 2.707650
v 0.162830 0.391301 2.239662
v 0.252079 0.179152 2.239662
v 1.939368 0.156206 0.534290
v 1.939368 0.334291 0.534290
v 2.190861 0.353076 0.206375
v 2.195814 0.353076 -0.524894
v 2.195814 0.137421 -0.524894
v 2.190861 0.137421 0.206375
v 2.145627 0.181249 -0.524941
v 2.145627 0.309248 -0.524941
v 1.979778 0.303680 0.508283
v 1.979778 0.186818 0.508283
v 2.221687 0.312394 -0.365567
v 2.174457 0.156206 0.382991
v 2.215753 0.178103 0.170469
v 2.134048 0.186818 0.408998
v 0.127896 0.348177 2.788865
v 2.174457 0.334291 0.382991
v 2.134048 0.303680 0.408998
v 2.215753 0.312394 0.170469
v 2.221687 0.178103 -0.365567
v 2.196097 0.189801 0.299933
v 3.145370 0.312394 -0.175745
v 3.145370 0.312394 -0.365038
v 3.145370 0.178103 -0.365038
v 2.196097 0.300697 0.299933
v 3.145370 0.178103 -0.175745
v 3.075449 0.189801 -0.046281
v 3.162538 0.862630 -0.255560
v 3.162538 0.862630 -0.357389
v 3.240139 0.312394 -0.365038
v 3.240139 0.178103 -0.365038
v 3.075449 0.300697 -0.046281
v 3.240139 0.178103 -0.175745
v 3.222971 0.862630 -0.357389
v 3.240139 0.312394 -0.175745
v 3.222971 0.862630 -0.255560
v 3.214133 0.214954 -0.175745
v 3.171376 0.214954 -0.175745
v 3.171376 0.275543 -0.175745
v 3.214133 0.275543 -0.175745
v 3.214133 0.214954 0.333437
v 3.171376 0.214954 0.333437
v 3.171376 0.275543 0.408947
v 3.214133 0.275543 0.408947
v 1.010882 0.598724 0.377570
v 0.874565 0.598724 0.377570
v 1.010882 0.598724 -0.223437
v 0.873782 0.929712 0.377570
v 0.777391 0.833322 0.377570
v 1.057831 0.598724 -0.255224
v 0.873782 0.929712 -0.223437
v 0.542794 1.066812 0.377570
v 0.542794 0.930495 0.377570
v 1.057831 0.598724 -0.511323
v 0.907109 0.962601 -0.255224
v 0.542794 1.066812 -0.223437
v 0.907109 0.962601 -0.511323
v 0.543232 1.113324 -0.255224
v 0.936199 0.598724 -0.623697
v 0.821101 0.876594 -0.623697
v 0.543232 1.113324 -0.511323
v 0.543232 0.991691 -0.623697
v 0.862986 0.598724 -0.623697
v 0.769332 0.824824 -0.623697
v 0.543232 0.918478 -0.623697
v -0.194072 0.987464 -1.282233
v -0.475785 0.585451 -1.282233
v -0.386322 0.550764 -1.282233
v -0.182064 0.842247 -1.282233
v -0.194072 0.987464 -0.782214
v -0.475785 0.585451 -0.782214
v -0.475933 0.196265 -1.282233
v -0.386430 0.268582 -1.282233
v -0.386322 0.550764 -0.781898
v -0.182064 0.842247 -0.781898
v -0.195280 0.953857 0.577001
v -0.225316 0.915672 0.377570
v -0.232724 0.919198 -0.223437
v -0.207886 0.955389 -0.255224
v -0.211051 0.956879 -0.511323
v -0.278701 0.862976 -0.623697
v -0.318647 0.805973 -0.623697
v -0.294849 0.806967 0.377570
v -0.437025 0.580367 0.388792
v -0.475933 0.196265 -0.782214
v -0.225119 -0.000370 -1.282233
v -0.204575 0.126010 -1.282233
v -0.386430 0.268582 -0.781898
v -0.204575 0.126010 -0.781898
v -0.152205 1.120176 -0.769770
v -0.153413 1.086570 0.589445
v -0.430795 0.579550 0.577001
v -0.473867 0.359702 -0.688468
v -0.225119 -0.000370 -0.782214
v -0.151992 0.953836 0.577001
v -0.123841 1.167789 -0.767978
v -0.125049 1.134182 0.591237
v -0.195859 0.937757 0.854720
v -0.444834 0.439302 0.322401
v -0.433124 0.441168 0.643175
v -0.473929 0.195691 -0.688468
v -0.122653 1.078065 0.588383
v -0.102776 1.111431 0.589638
v -0.409243 0.576723 0.854720
v -0.784556 0.381424 0.377570
v -1.190601 0.312394 0.552261
v -0.911905 0.359774 0.377570
v -0.775297 0.344072 -0.623697
v -0.844643 0.336351 -0.623697
v -0.845400 0.336452 -0.623030
v -1.003831 0.300697 -0.688468
v -1.003831 0.189801 -0.688468
v -0.442265 0.172613 -0.366151
v -0.226309 0.000045 0.577001
v -0.122653 1.078065 0.294298
v -0.151992 0.953836 0.282916
v -0.102776 1.111431 0.295554
v -0.191714 0.904979 0.894137
v -0.372700 0.598761 0.894137
v -1.203081 0.312394 -0.366151
v -0.960902 0.332710 -0.511323
v -0.956283 0.353564 -0.255224
v -0.912356 0.360864 -0.223437
v -1.203081 0.178103 -0.366151
v -0.226879 0.004688 0.854720
v -0.427666 0.367932 0.780394
v -0.212774 0.565287 1.503754
v -0.206060 0.589061 1.444629
v -0.191714 0.851458 0.894137
v -0.372700 0.545240 0.894137
v -1.188710 0.300697 0.681725
v -1.917961 0.312394 0.281374
v -1.925798 0.312394 -0.365737
v -1.925798 0.178103 -0.365737
v -0.426899 0.172521 0.643922
v -0.222895 -0.006040 1.503754
v -0.432962 0.183960 0.854720
v -0.206060 0.535540 1.444629
v -0.436510 0.190770 0.779247
v -1.188710 0.189801 0.681725
v -1.914409 0.300697 0.410838
v -1.948873 0.353076 -0.525126
v -1.190601 0.178103 0.552261
v -1.917961 0.178103 0.281374
v -1.948873 0.137421 -0.525126
v -0.335214 0.179152 1.503754
v -0.175684 0.016163 2.551760
v -1.914409 0.189801 0.410838
v -1.942333 0.353076 0.357673
v -1.942333 0.137421 0.357673
v -1.999059 0.309248 -0.525078
v -1.999059 0.181249 -0.525078
v -0.201107 0.179152 2.707650
v -0.162830 0.391301 2.239662
v -0.252079 0.179152 2.239662
v -1.939368 0.156206 0.534290
v -1.939368 0.334291 0.534290
v -2.190861 0.353076 0.206375
v -2.195814 0.353076 -0.524894
v -2.195814 0.137421 -0.524894
v -2.190861 0.137421 0.206375
v -2.145627 0.181249 -0.524941
v -2.145627 0.309248 -0.524941
v -1.979778 0.303680 0.508283
v -1.979778 0.186818 0.508283
v -2.221687 0.312394 -0.365567
v -2.174457 0.156206 0.382991
v -2.215753 0.178103 0.170469
v -2.134048 0.186818 0.408998
v -0.127896 0.348177 2.788865
v -2.174457 0.334291 0.382991
v -2.134048 0.303680 0.408998
v -2.215753 0.312394 0.170469
v -2.221687 0.178103 -0.365567
v -2.196097 0.189801 0.299933
v -3.145370 0.312394 -0.175745
v -3.145370 0.312394 -0.365038
v -3.145370 0.178103 -0.365038
v -2.196097 0.300697 0.299933
v -3.145370 0.178103 -0.175745
v -3.075449 0.189801 -0.046281
v -3.162538 0.862630 -0.255560
v -3.162538 0.862630 -0.357389
v -3.240139 0.312394 -0.365038
v -3.240139 0.178103 -0.365038
v -3.075449 0.300697 -0.046281
v -3.240139 0.178103 -0.175745
v -3.222971 0.862630 -0.357389
v -3.240139 0.312394 -0.175745
v -3.222971 0.862630 -0.255560
v -3.214133 0.214954 -0.175745
v -3.171376 0.214954 -0.175745
v -3.171376 0.275543 -0.175745
v -3.214133 0.275543 -0.175745
v -3.214133 0.214954 0.333437
v -3.171376 0.214954 0.333437
v -3.171376 0.275543 0.408947
v -3.214133 0.275543 0.408947
v -1.010882 0.598724 0.377570
v -0.874565 0.598724 0.377570
v -1.010882 0.598724 -0.223437
v -0.873782 0.929712 0.377570
v -0.777391 0.833322 0.377570
v -1.057831 0.598724 -0.255224
v -0.873782 0.929712 -0.223437
v -0.542794 1.066812 0.377570
v -0.542794 0.930495 0.377570
v -1.057831 0.598724 -0.511323
v -0.907109 0.962601 -0.255224
v -0.542794 1.066812 -0.223437
v -0.907109 0.962601 -0.511323
v -0.543232 1.113324 -0.255224
v -0.936199 0.598724 -0.623697
v -0.821101 0.876594 -0.623697
v -0.543232 1.113324 -0.511323
v -0.543232 0.991691 -0.623697
v -0.862986 0.598724 -0.623697
v -0.769332 0.824824 -0.623697
v -0.543232 0.918478 -0.623697
vn -0.0000 -0.0000 -1.0000
vn 0.8189 0.5739 -0.0000
vn -0.8189 -0.5739 -0.0000
vn 1.0000 0.0004 -0.0000
vn -1.0000 -0.0004 -0.0000
vn 0.9538 0.3003 0.0066
vn 0.6170 -0.7870 -0.0000
vn -0.6170 0.7870 -0.0000
vn -0.0000 1.0000 -0.0000
vn -0.0069 -0.0933 0.9956
vn -0.0011 -0.0933 0.9956
vn -0.0000 -0.0933 0.9956
vn 0.8592 0.5114 0.0119
vn 0.8508 0.5237 0.0443
vn 0.8542 0.5169 0.0558
vn 0.8460 0.5323 0.0291
vn -0.3827 -0.9238 0.0109
vn 0.6245 -0.7810 0.0016
vn 0.6501 -0.7598 0.0098
vn 0.6459 -0.7634 0.0082
vn -0.0000 0.0934 -0.9956
vn -0.0207 -0.0499 0.9985
vn 0.0887 0.9937 -0.0690
vn 0.1548 0.9869 -0.0453
vn 0.1739 0.9840 -0.0383
vn 0.1067 0.9583 -0.2653
vn 0.1066 0.9582 -0.2654
vn -0.0000 -0.9998 0.0212
vn -0.9732 -0.2298 -0.0000
vn -0.0000 -1.0000 0.0002
vn -0.0000 -1.0000 0.0003
vn -0.8591 -0.5118 -0.0000
vn 0.0006 -1.0000 0.0001
vn 0.0073 -1.0000 0.0001
vn 0.0036 -1.0000 -0.0000
vn 0.7658 0.4526 0.4569
vn 0.6497 -0.7601 0.0114
vn 0.8506 -0.0000 -0.5258
vn 0.0027 -0.9988 -0.0485
vn -0.0046 -0.9981 -0.0613
vn -0.0111 -0.9973 -0.0725
vn -0.0000 -0.0912 0.9958
vn -0.0000 -0.9999 0.0167
vn 0.6629 0.7177 0.2133
vn -0.0000 -0.0000 1.0000
vn 0.1286 -0.0000 0.9917
vn 0.0006 -0.0000 -1.0000
vn -0.0000 -0.9999 -0.0165
vn -0.0000 0.9278 0.3731
vn 0.9701 0.1416 0.1974
vn 0.9467 0.2152 0.2398
vn 0.9870 0.0596 0.1491
vn -0.9571 -0.0000 -0.2897
vn 0.9315 -0.3630 0.0219
vn 0.9322 -0.3612 0.0238
vn 0.9386 -0.3420 0.0448
vn 0.0338 0.9953 0.0905
vn 0.0338 0.9953 0.0908
vn 0.0338 0.9953 0.0909
vn -0.8799 0.4752 -0.0066
vn -0.8529 0.5220 -0.0099
vn -0.8806 0.4739 -0.0065
vn -0.0000 -1.0000 -0.0000
vn -0.9897 -0.0000 -0.1433
vn 0.3497 -0.0000 0.9369
vn 0.6797 -0.7332 0.0202
vn 0.6825 -0.7306 0.0200
vn 0.6562 -0.7543 0.0221
vn 0.1494 0.9882 -0.0346
vn 0.1556 0.9876 -0.0202
vn 0.1639 0.9865 -0.0032
vn -0.8674 0.4965 0.0336
vn -0.8712 0.4903 0.0255
vn -0.8737 0.4860 0.0199
vn 0.0338 -0.9953 0.0905
vn 0.0338 -0.9953 0.0908
vn 0.0338 -0.9953 0.0904
vn -0.8799 -0.4752 -0.0066
vn -0.8529 -0.5220 -0.0099
vn -0.8492 -0.5280 -0.0103
vn 0.0009 -0.0000 -1.0000
vn 0.8664 -0.4913 0.0893
vn 0.9299 -0.3638 0.0547
vn 0.9375 -0.3446 0.0495
vn -0.0000 0.9732 0.2301
vn -0.0000 -0.6912 0.7227
vn 0.9398 0.3164 0.1289
vn 0.9260 0.3601 0.1131
vn 0.9168 0.3857 0.1036
vn -0.9802 -0.0000 0.1982
vn 0.0161 -0.9916 0.1281
vn 0.0179 -0.9953 0.0947
vn 0.0159 -0.9911 0.1325
vn -0.8674 -0.4965 0.0336
vn -0.8712 -0.4903 0.0255
vn -0.8649 -0.5004 0.0387
vn 0.9998 -0.0000 0.0187
vn 0.9625 -0.2504 0.1048
vn 0.5412 -0.0000 0.8409
vn 0.0685 0.9918 0.1082
vn 0.0682 0.9916 0.1102
vn 0.0680 0.9914 0.1118
vn 0.8546 0.5192 0.0091
vn 0.8343 0.5512 0.0058
vn 0.8336 0.5523 0.0056
vn 0.0685 -0.9918 0.1082
vn 0.0682 -0.9916 0.1102
vn 0.0686 -0.9919 0.1067
vn 0.8546 -0.5192 0.0091
vn 0.8343 -0.5512 0.0058
vn 0.8567 -0.5158 0.0095
vn -0.0004 1.0000 -0.0059
vn -0.0033 1.0000 -0.0055
vn -0.0000 1.0000 -0.0060
vn -0.0004 -1.0000 -0.0059
vn -0.0033 -1.0000 -0.0055
vn -0.0035 -1.0000 -0.0055
vn -0.0000 -0.4331 0.9014
vn 0.9201 0.3796 0.0968
vn 0.9262 0.3662 0.0902
vn 0.9171 0.3858 0.0999
vn 0.9871 -0.0000 -0.1603
vn 0.9100 -0.3814 0.1626
vn 0.9367 -0.3253 0.1297
vn 0.9432 -0.3096 0.1205
vn -0.9999 -0.0000 -0.0124
vn 0.9100 0.3815 0.1626
vn 0.9367 0.3253 0.1297
vn 0.9007 0.3986 0.1728
vn 0.0003 -0.0000 -1.0000
vn 0.9677 -0.0000 0.2521
vn 0.0379 -0.9946 0.0965
vn 0.0416 -0.9929 0.1114
vn 0.0376 -0.9947 0.0956
vn 0.0379 0.9946 0.0965
vn 0.0416 0.9929 0.1114
vn 0.0418 0.9928 0.1123
vn -0.9995 0.0312 -0.0000
vn 0.0002 0.0046 -1.0000
vn 0.3663 -0.0000 0.9305
vn -0.0000 0.0139 -0.9999
vn -0.0000 0.0069 -1.0000
vn -0.0000 0.1436 0.9896
vn 1.0000 -0.0000 -0.0000
vn 0.8799 -0.0000 0.4752
vn 0.9995 0.0312 -0.0000
vn -1.0000 -0.0000 -0.0000
vn -0.0000 -0.7800 0.6258
vn 0.5461 -0.2262 0.8066
vn 0.9239 0.3827 -0.0000
vn 0.5461 0.2262 0.8066
vn 0.3827 0.9239 -0.0000
vn 0.9239 -0.3827 -0.0000
vn 0.2270 0.5480 0.8051
vn 0.1743 0.9751 0.1369
vn 0.1431 0.8891 0.4349
vn 0.1380 0.8715 0.4706
vn 0.6533 0.2706 -0.7071
vn 0.8189 0.5738 0.0135
vn 0.8225 0.5684 0.0202
vn 0.1677 0.9858 0.0001
vn 0.1679 0.9858 0.0004
vn 0.1678 0.9858 0.0002
vn 0.2706 0.6533 -0.7071
vn -0.4261 0.9047 -0.0000
vn -0.4298 0.9029 -0.0000
vn 0.9997 0.0016 0.0243
vn 0.9996 0.0055 0.0271
vn 0.9988 0.0360 0.0327
vn -0.3051 0.6426 -0.7028
vn -0.3063 0.6361 -0.7083
vn -0.3044 0.6464 -0.6996
vn 0.6676 -0.2362 -0.7060
vn 0.6652 -0.2321 -0.7097
vn 0.6629 -0.2382 -0.7098
vn 0.7001 -0.7102 0.0740
vn 0.8135 -0.5811 0.0204
vn 0.8550 -0.5186 -0.0033
vn 0.9955 0.0573 0.0756
vn 0.9955 0.0540 0.0778
vn 0.9954 0.0586 0.0757
vn 0.1640 0.9769 -0.1368
vn -0.9238 -0.3827 0.0107
vn -0.9426 0.3340 -0.0013
vn -0.9276 0.3734 0.0084
vn -0.9238 0.3827 0.0107
vn 0.4475 -0.8942 0.0110
vn 0.4462 -0.8949 0.0114
vn 0.4459 -0.8950 0.0115
vn 0.9987 0.0369 0.0355
vn 0.9988 0.0352 0.0346
vn 0.9986 0.0382 0.0362
vn 0.8450 0.5341 0.0285
vn 0.8446 0.5347 0.0279
vn 0.8460 0.5323 0.0303
vn -0.2545 0.5352 0.8054
vn -0.2573 0.5458 0.7974
vn -0.2575 0.5469 0.7966
vn -0.0000 0.7689 0.6394
vn -0.0000 -0.0376 0.9993
vn -0.0000 -0.0701 0.9975
vn -0.0000 0.9997 0.0247
vn -0.0000 0.0376 -0.9993
vn -0.0002 0.9983 0.0578
vn 0.0002 0.9983 0.0578
vn -0.0000 0.9983 0.0578
vn -0.8189 0.5739 -0.0000
vn 0.8189 -0.5739 -0.0000
vn -1.0000 0.0004 -0.0000
vn 1.0000 -0.0004 -0.0000
vn -0.9538 0.3003 0.0066
vn -0.6170 -0.7870 -0.0000
vn 0.6170 0.7870 -0.0000
vn 0.0011 -0.0933 0.9956
vn 0.0069 -0.0933 0.9956
vn -0.8592 0.5114 0.0119
vn -0.8542 0.5169 0.0558
vn -0.8508 0.5237 0.0443
vn -0.8460 0.5323 0.0291
vn 0.3827 -0.9238 0.0109
vn -0.6245 -0.7810 0.0016
vn -0.6175 -0.7865 0.0061
vn -0.6198 -0.7847 0.0034
vn 0.0207 -0.0499 0.9985
vn -0.0887 0.9937 -0.0690
vn -0.1548 0.9869 -0.0453
vn -0.0680 0.9948 -0.0764
vn -0.1067 0.9583 -0.2653
vn -0.1066 0.9582 -0.2654
vn 0.9732 -0.2298 -0.0000
vn 0.8591 -0.5118 -0.0000
vn -0.0073 -1.0000 0.0001
vn -0.0006 -1.0000 0.0001
vn -0.0036 -1.0000 -0.0000
vn -0.7658 0.4526 0.4569
vn -0.6497 -0.7601 0.0114
vn -0.8506 -0.0000 -0.5258
vn 0.0046 -0.9981 -0.0613
vn -0.0027 -0.9988 -0.0485
vn 0.0111 -0.9973 -0.0725
vn -0.6629 0.7177 0.2133
vn -0.1286 -0.0000 0.9917
vn -0.0006 -0.0000 -1.0000
vn -0.9701 0.1416 0.1974
vn -0.9467 0.2152 0.2398
vn -0.9146 0.2900 0.2820
vn 0.9571 -0.0000 -0.2897
vn -0.9322 -0.3612 0.0238
vn -0.9315 -0.3630 0.0219
vn -0.9386 -0.3420 0.0448
vn -0.0338 0.9953 0.0905
vn -0.0338 0.9953 0.0908
vn -0.0338 0.9953 0.0904
vn 0.8799 0.4752 -0.0066
vn 0.8529 0.5220 -0.0099
vn 0.8492 0.5280 -0.0103
vn 0.9897 -0.0000 -0.1433
vn -0.3497 -0.0000 0.9369
vn -0.6797 -0.7332 0.0202
vn -0.6825 -0.7306 0.0200
vn -0.8856 -0.4644 -0.0003
vn -0.1639 0.9865 -0.0032
vn -0.1556 0.9876 -0.0202
vn -0.1494 0.9882 -0.0346
vn 0.8712 0.4903 0.0255
vn 0.8674 0.4965 0.0336
vn 0.8737 0.4860 0.0199
vn -0.0338 -0.9953 0.0908
vn -0.0338 -0.9953 0.0905
vn -0.0338 -0.9953 0.0904
vn 0.8529 -0.5220 -0.0099
vn 0.8799 -0.4752 -0.0066
vn 0.8492 -0.5280 -0.0103
vn -0.0009 -0.0000 -1.0000
vn -0.8664 -0.4913 0.0893
vn -0.9299 -0.3638 0.0547
vn -0.8511 -0.5162 0.0961
vn -0.9398 0.3164 0.1289
vn -0.9260 0.3601 0.1131
vn -0.9445 0.2995 0.1349
vn 0.9802 -0.0000 0.1982
vn -0.0161 -0.9916 0.1281
vn -0.0179 -0.9953 0.0947
vn -0.0181 -0.9958 0.0902
vn 0.8674 -0.4965 0.0336
vn 0.8712 -0.4903 0.0255
vn 0.8737 -0.4860 0.0199
vn -0.9998 -0.0000 0.0187
vn -0.9625 -0.2504 0.1048
vn -0.5412 -0.0000 0.8409
vn -0.0685 0.9918 0.1082
vn -0.0682 0.9916 0.1102
vn -0.0686 0.9919 0.1067
vn -0.8343 0.5512 0.0058
vn -0.8546 0.5192 0.0091
vn -0.8336 0.5523 0.0056
vn -0.0682 -0.9916 0.1102
vn -0.0685 -0.9918 0.1082
vn -0.0686 -0.9919 0.1067
vn -0.8546 -0.5192 0.0091
vn -0.8343 -0.5512 0.0058
vn -0.8336 -0.5523 0.0056
vn 0.0033 1.0000 -0.0055
vn 0.0004 1.0000 -0.0059
vn 0.0004 -1.0000 -0.0059
vn 0.0033 -1.0000 -0.0055
vn -0.0000 -1.0000 -0.0060
vn -0.9262 0.3662 0.0902
vn -0.9201 0.3796 0.0968
vn -0.9171 0.3858 0.0999
vn -0.9871 -0.0000 -0.1603
vn -0.9367 -0.3253 0.1297
vn -0.9100 -0.3814 0.1626
vn -0.9432 -0.3096 0.1205
vn 0.9999 -0.0000 -0.0124
vn -0.9100 0.3815 0.1626
vn -0.9367 0.3253 0.1297
vn -0.9432 0.3096 0.1205
vn -0.0003 -0.0000 -1.0000
vn -0.9677 -0.0000 0.2521
vn -0.0416 -0.9929 0.1114
vn -0.0379 -0.9946 0.0965
vn -0.0376 -0.9947 0.0956
vn -0.0379 0.9946 0.0965
vn -0.0416 0.9929 0.1114
vn -0.0376 0.9947 0.0956
vn -0.0002 0.0046 -1.0000
vn -0.3663 -0.0000 0.9305
vn -0.8799 -0.0000 0.4752
vn -0.5461 -0.2262 0.8066
vn -0.9239 0.3827 -0.0000
vn -0.5461 0.2262 0.8066
vn -0.3827 0.9239 -0.0000
vn -0.9239 -0.3827 -0.0000
vn -0.2270 0.5480 0.8051
vn -0.1431 0.8891 0.4349
vn -0.1743 0.9751 0.1369
vn -0.1380 0.8715 0.4706
vn -0.6533 0.2706 -0.7071
vn -0.8189 0.5738 0.0135
vn -0.1678 0.9858 0.0002
vn -0.1679 0.9858 0.0004
vn -0.1677 0.9858 0.0001
vn -0.2706 0.6533 -0.7071
vn 0.4261 0.9047 -0.0000
vn 0.4298 0.9029 -0.0000
vn -0.9998 0.0004 0.0214
vn -0.9997 0.0016 0.0243
vn 0.3051 0.6426 -0.7028
vn 0.3063 0.6361 -0.7083
vn 0.3071 0.6311 -0.7123
vn -0.6629 -0.2382 -0.7098
vn -0.6652 -0.2321 -0.7097
vn -0.6676 -0.2362 -0.7060
vn -0.7001 -0.7102 0.0740
vn -0.8135 -0.5811 0.0204
vn -0.6535 -0.7512 0.0929
vn -0.9954 0.0586 0.0757
vn -0.9955 0.0597 0.0737
vn -0.9969 0.0522 0.0582
vn -0.1640 0.9769 -0.1368
vn 0.9238 -0.3827 0.0107
vn 0.9426 0.3340 -0.0013
vn 0.9276 0.3734 0.0084
vn 0.9455 0.3256 -0.0034
vn -0.4475 -0.8942 0.0110
vn -0.4462 -0.8949 0.0114
vn -0.4479 -0.8940 0.0109
vn -0.9988 0.0352 0.0346
vn -0.9987 0.0369 0.0355
vn -0.9986 0.0382 0.0362
vn -0.8446 0.5347 0.0279
vn -0.8422 0.5387 0.0237
vn -0.8450 0.5341 0.0285
vn 0.2573 0.5458 0.7974
vn 0.2545 0.5352 0.8054
vn 0.2575 0.5469 0.7966
vn -0.0000 0.9969 0.0783
vn 0.8312 0.4913 0.2603
vn -0.0000 0.8673 0.4977
vn -0.8312 0.4913 0.2603
vn -0.0086 -0.0932 0.9956
vn 0.8587 0.5075 0.0718
vn 0.6198 -0.7847 0.0034
vn 0.6170 -0.7870 0.0084
vn 0.6175 -0.7865 0.0061
vn 0.0680 0.9948 -0.0764
vn 0.1064 0.9581 -0.2659
vn 0.0073 -1.0000 -0.0000
vn 0.0072 -0.9991 -0.0407
vn 0.9146 0.2900 0.2820
vn 0.0338 0.9953 0.0904
vn -0.8492 0.5280 -0.0103
vn 0.8856 -0.4644 -0.0003
vn 0.1701 0.9854 0.0054
vn 0.1298 0.9885 -0.0781
vn 0.1653 0.9862 0.0019
vn -0.8649 0.5004 0.0387
vn 0.0338 -0.9953 0.0909
vn -0.8806 -0.4739 -0.0065
vn 0.8511 -0.5162 0.0961
vn 0.9445 0.2995 0.1349
vn 0.0181 -0.9958 0.0902
vn -0.8737 -0.4860 0.0199
vn 0.0686 0.9919 0.1067
vn 0.8567 0.5158 0.0095
vn 0.0680 -0.9914 0.1118
vn 0.8336 -0.5523 0.0056
vn -0.0035 1.0000 -0.0055
vn 0.9287 0.3603 0.0874
vn 0.9007 -0.3986 0.1728
vn 0.9432 0.3096 0.1205
vn 0.0418 -0.9928 0.1123
vn 0.0376 0.9947 0.0956
vn 0.1775 0.9799 0.0911
vn 0.8465 0.5321 0.0196
vn 0.8428 0.5378 0.0213
vn 0.8223 0.5686 0.0242
vn 0.9998 0.0004 0.0214
vn 0.9987 0.0396 0.0332
vn -0.3071 0.6311 -0.7123
vn 0.6588 -0.2400 -0.7130
vn 0.6604 -0.2305 -0.7147
vn 0.6535 -0.7512 0.0929
vn 0.9969 0.0522 0.0582
vn 0.9955 0.0597 0.0737
vn 0.9975 0.0495 0.0514
vn -0.9455 0.3256 -0.0034
vn 0.4479 -0.8940 0.0109
vn 0.9989 0.0327 0.0332
vn 0.8422 0.5387 0.0237
vn -0.2542 0.5339 0.8065
vn 0.0005 0.9983 0.0579
vn -0.0005 0.9983 0.0579
vn 0.0086 -0.0932 0.9956
vn -0.8587 0.5075 0.0718
vn -0.6170 -0.7870 0.0084
vn -0.6459 -0.7634 0.0082
vn -0.6501 -0.7598 0.0098
vn -0.1739 0.9840 -0.0383
vn -0.1064 0.9581 -0.2658
vn -0.0073 -1.0000 -0.0000
vn -0.0072 -0.9991 -0.0407
vn -0.9870 0.0596 0.1491
vn -0.0338 0.9953 0.0909
vn 0.8806 0.4739 -0.0065
vn -0.6562 -0.7543 0.0221
vn -0.1701 0.9854 0.0054
vn -0.1653 0.9862 0.0019
vn -0.1298 0.9885 -0.0781
vn 0.8649 0.5004 0.0387
vn -0.0338 -0.9953 0.0909
vn 0.8806 -0.4739 -0.0065
vn -0.9375 -0.3446 0.0495
vn -0.9168 0.3857 0.1036
vn -0.0159 -0.9911 0.1325
vn 0.8649 -0.5004 0.0387
vn -0.0680 0.9914 0.1118
vn -0.8567 0.5158 0.0095
vn -0.0680 -0.9914 0.1118
vn -0.8567 -0.5158 0.0095
vn 0.0035 1.0000 -0.0055
vn 0.0035 -1.0000 -0.0055
vn -0.9287 0.3603 0.0874
vn -0.9007 -0.3986 0.1728
vn -0.9007 0.3986 0.1728
vn -0.0418 -0.9928 0.1123
vn -0.0418 0.9928 0.1123
vn -0.1775 0.9799 0.0911
vn -0.8223 0.5686 0.0242
vn -0.8428 0.5378 0.0213
vn -0.8225 0.5684 0.0202
vn -0.8465 0.5321 0.0196
vn -0.9988 0.0360 0.0327
vn -0.9996 0.0055 0.0271
vn -0.9987 0.0396 0.0332
vn 0.3044 0.6464 -0.6996
vn -0.6588 -0.2400 -0.7130
vn -0.6604 -0.2305 -0.7147
vn -0.8550 -0.5186 -0.0033
vn -0.9955 0.0540 0.0778
vn -0.9955 0.0573 0.0756
vn -0.9975 0.0495 0.0514
vn 0.9238 0.3827 0.0107
vn -0.4459 -0.8950 0.0115
vn -0.9989 0.0327 0.0332
vn -0.8460 0.5323 0.0303
vn 0.2542 0.5339 0.8065
vt 0.721097 0.941308
vt 0.759506 0.897375
vt 0.781227 0.899171
vt 0.106533 0.561150
vt 0.048819 0.643307
vt 0.042230 0.565556
vt 0.673701 0.927943
vt 0.715908 0.927927
vt 0.908115 0.942610
vt 0.986811 0.987546
vt 0.907301 0.987625
vt 0.781227 0.841115
vt 0.759506 0.842911
vt 0.167017 0.555965
vt 0.113122 0.638901
vt 0.662884 0.941331
vt 0.652376 0.900742
vt 0.908115 0.897789
vt 0.987625 0.942531
vt 0.912520 0.555523
vt 0.912520 0.439955
vt 0.976052 0.528338
vt 0.029551 0.353762
vt 0.021170 0.565248
vt 0.008491 0.353454
vt 0.431883 0.393385
vt 0.354041 0.428064
vt 0.402458 0.368570
vt 0.633473 0.836471
vt 0.633473 0.903815
vt 0.944642 0.343999
vt 0.865739 0.315113
vt 0.945188 0.315113
vt 0.944642 0.408987
vt 0.865192 0.343999
vt 0.352386 0.499117
vt 0.372288 0.498904
vt 0.372285 0.505386
vt 0.013563 0.565508
vt 0.000884 0.353714
vt 0.028398 0.310365
vt 0.089249 0.349569
vt 0.159742 0.719265
vt 0.003014 0.756151
vt 0.002639 0.719342
vt 0.446701 0.322390
vt 0.546334 0.203698
vt 0.563354 0.231546
vt 0.435344 0.094033
vt 0.455234 0.042155
vt 0.455234 0.100306
vt 0.345254 0.494870
vt 0.353662 0.494511
vt 0.702519 0.588658
vt 0.750547 0.731300
vt 0.699301 0.739193
vt 0.692079 0.588559
vt 0.668232 0.578651
vt 0.706538 0.164802
vt 0.760629 0.001445
vt 0.802446 0.035476
vt 0.139889 0.483030
vt 0.158923 0.526906
vt 0.139889 0.528534
vt 0.919634 0.817820
vt 0.965566 0.862243
vt 0.919634 0.862243
vt 0.485466 0.436992
vt 0.617221 0.275383
vt 0.158923 0.481402
vt 0.163961 0.526793
vt 0.446581 0.140621
vt 0.356166 0.248688
vt 0.081708 0.300316
vt 0.085889 0.306275
vt 0.590188 0.198435
vt 0.169503 0.373380
vt 0.202847 0.344058
vt 0.210256 0.353216
vt 0.278972 0.077362
vt 0.297665 0.129240
vt 0.279543 0.129240
vt 0.348695 0.306305
vt 0.411772 0.357612
vt 0.586403 0.108793
vt 0.567775 0.149923
vt 0.567775 0.113187
vt 0.644190 0.242383
vt 0.634627 0.498233
vt 0.544736 0.529218
vt 0.535635 0.528195
vt 0.690566 0.010140
vt 0.663494 0.047935
vt 0.690566 0.002135
vt 0.040871 0.117186
vt 0.057869 0.002877
vt 0.057732 0.117261
vt 0.637649 0.626752
vt 0.528850 0.722899
vt 0.528850 0.625497
vt 0.449447 0.532392
vt 0.341346 0.512305
vt 0.449447 0.512305
vt 0.890949 0.186924
vt 0.874363 0.107844
vt 0.898893 0.107562
vt 0.653484 0.121625
vt 0.544736 0.592067
vt 0.138643 0.199806
vt 0.147082 0.301121
vt 0.692495 0.610521
vt 0.684287 0.694171
vt 0.684287 0.610268
vt 0.908851 0.617127
vt 0.949046 0.654472
vt 0.909311 0.657774
vt 0.637853 0.764994
vt 0.529148 0.742432
vt 0.177599 0.651670
vt 0.063965 0.645150
vt 0.202540 0.645150
vt 0.333787 0.102405
vt 0.202497 0.678993
vt 0.177572 0.672744
vt 0.084585 0.077158
vt 0.092590 0.015515
vt 0.092590 0.077158
vt 0.041007 0.227542
vt 0.566049 0.177999
vt 0.674602 0.643747
vt 0.680129 0.739039
vt 0.055718 0.653541
vt 0.076032 0.651689
vt 0.346771 0.087314
vt 0.459367 0.125370
vt 0.063922 0.678992
vt 0.076005 0.672763
vt 0.837167 0.038579
vt 0.811466 0.031072
vt 0.830611 0.031073
vt 0.166695 0.196959
vt 0.128407 0.085095
vt 0.149129 0.034136
vt 0.535635 0.593091
vt 0.422801 0.535811
vt 0.793382 0.976052
vt 0.765845 0.913301
vt 0.793382 0.909067
vt 0.094859 0.087621
vt 0.055695 0.670944
vt 0.036244 0.648108
vt 0.558333 0.186617
vt 0.755602 0.806007
vt 0.792801 0.696884
vt 0.792561 0.806304
vt 0.036208 0.676055
vt 0.705701 0.535701
vt 0.596574 0.572900
vt 0.573603 0.535907
vt 0.830611 0.009150
vt 0.837167 0.001643
vt 0.804911 0.038579
vt 0.811466 0.009150
vt 0.185180 0.001595
vt 0.166835 0.156245
vt 0.166042 0.001595
vt 0.121910 0.012153
vt 0.607511 0.001872
vt 0.631563 0.008701
vt 0.612503 0.008514
vt 0.755808 0.673913
vt 0.790583 0.670369
vt 0.176041 0.871888
vt 0.266268 0.865314
vt 0.291272 0.871888
vt 0.570063 0.570682
vt 0.547109 0.535701
vt 0.176017 0.837928
vt 0.266253 0.844166
vt 0.181777 0.844180
vt 0.804911 0.001643
vt 0.806652 0.533932
vt 0.829451 0.394649
vt 0.828577 0.534321
vt 0.082945 0.157786
vt 0.060147 0.018499
vt 0.082945 0.003221
vt 0.821735 0.921260
vt 0.821735 0.963859
vt 0.607511 0.040222
vt 0.612503 0.033680
vt 0.636556 0.040508
vt 0.636556 0.002158
vt 0.291248 0.837928
vt 0.161303 0.846140
vt 0.148128 0.840981
vt 0.400398 0.840399
vt 0.540108 0.821880
vt 0.540108 0.841025
vt 0.631563 0.033867
vt 0.161316 0.863603
vt 0.181792 0.865328
vt 0.322765 0.910467
vt 0.461020 0.882146
vt 0.461004 0.910467
vt 0.840228 0.515031
vt 0.860314 0.376871
vt 0.860314 0.515031
vt 0.148149 0.869025
vt 0.841025 0.541989
vt 0.812695 0.680241
vt 0.760822 0.541143
vt 0.793280 0.669787
vt 0.741411 0.538211
vt 0.321923 0.830267
vt 0.450567 0.862728
vt 0.924595 0.106685
vt 0.940950 0.189038
vt 0.925721 0.189038
vt 0.840228 0.376871
vt 0.860314 0.362695
vt 0.021385 0.246803
vt 0.038579 0.110542
vt 0.038579 0.246906
vt 0.841017 0.680226
vt 0.812703 0.694424
vt 0.757922 0.365263
vt 0.840228 0.362695
vt 0.060981 0.246008
vt 0.072648 0.163473
vt 0.075229 0.246008
vt 0.025681 0.065787
vt 0.034721 0.081016
vt 0.025681 0.081016
vt 0.002551 0.588890
vt 0.030863 0.568842
vt 0.030863 0.588918
vt 0.137386 0.004153
vt 0.158174 0.023147
vt 0.137386 0.021713
vt 0.060981 0.266196
vt 0.071319 0.260656
vt 0.075229 0.266196
vt 0.014425 0.671262
vt 0.064891 0.251548
vt 0.064891 0.260656
vt 0.071319 0.251548
vt 0.001212 0.320207
vt 0.007716 0.242770
vt 0.007716 0.320207
vt 0.171068 0.574829
vt 0.177464 0.487387
vt 0.177464 0.574829
vt 0.010229 0.320207
vt 0.019290 0.244019
vt 0.019290 0.320198
vt 0.466807 0.121524
vt 0.457747 0.045337
vt 0.466807 0.034049
vt 0.001212 0.231081
vt 0.007716 0.231081
vt 0.856040 0.925899
vt 0.888597 0.888607
vt 0.903990 0.901981
vt 0.538380 0.760009
vt 0.500845 0.740993
vt 0.542037 0.753506
vt 0.168016 0.968336
vt 0.115683 0.874466
vt 0.167953 0.874913
vt 0.805217 0.908905
vt 0.854612 0.905560
vt 0.916254 0.865292
vt 0.899751 0.855242
vt 0.464908 0.689015
vt 0.472632 0.688148
vt 0.870386 0.767724
vt 0.963907 0.715920
vt 0.964425 0.767724
vt 0.204366 0.967891
vt 0.204469 0.874466
vt 0.949046 0.559744
vt 0.948575 0.617086
vt 0.484058 0.625998
vt 0.490051 0.630826
vt 0.637902 0.784524
vt 0.751725 0.779590
vt 0.752293 0.800517
vt 0.120964 0.411883
vt 0.160714 0.364691
vt 0.141551 0.411712
vt 0.111879 0.906026
vt 0.054950 0.866561
vt 0.111869 0.865978
vt 0.060037 0.539535
vt 0.069155 0.538910
vt 0.146760 0.473167
vt 0.161250 0.458511
vt 0.153911 0.411641
vt 0.002999 0.906032
vt 0.002494 0.865978
vt 0.870426 0.667390
vt 0.964478 0.666230
vt 0.169940 0.449721
vt 0.140369 0.543559
vt 0.114491 0.387337
vt 0.208286 0.474456
vt 0.210256 0.462871
vt 0.205210 0.493813
vt 0.189269 0.329876
vt 0.202744 0.343981
vt 0.173606 0.298037
vt 0.109898 0.337443
vt 0.674372 0.605272
vt 0.691964 0.588658
vt 0.868030 0.852040
vt 0.832233 0.696512
vt 0.868030 0.696611
vt 0.833530 0.851945
vt 0.797976 0.697130
vt 0.160103 0.684027
vt 0.003035 0.680439
vt 0.091642 0.378866
vt 0.055653 0.383151
vt 0.540060 0.599426
vt 0.784196 0.860694
vt 0.818590 0.893515
vt 0.606139 0.055940
vt 0.663494 0.055940
vt 0.913006 0.775811
vt 0.971568 0.769737
vt 0.972194 0.775811
vt 0.383466 0.452878
vt 0.562776 0.146946
vt 0.562776 0.116164
vt 0.476452 0.592573
vt 0.445703 0.636555
vt 0.445703 0.592573
vt 0.345254 0.457419
vt 0.348664 0.491535
vt 0.257654 0.038579
vt 0.461020 0.001352
vt 0.461020 0.038398
vt 0.428210 0.052677
vt 0.435344 0.048427
vt 0.414726 0.987625
vt 0.360254 0.912797
vt 0.414726 0.912797
vt 0.298792 0.912846
vt 0.356857 0.987625
vt 0.298792 0.987625
vt 0.965566 0.817820
vt 0.721097 0.798977
vt 0.300242 0.643307
vt 0.242527 0.561150
vt 0.306830 0.565556
vt 0.673701 0.812343
vt 0.662884 0.798955
vt 0.003435 0.999119
vt 0.082131 0.954184
vt 0.082945 0.999199
vt 0.235938 0.638901
vt 0.182043 0.555965
vt 0.652376 0.839544
vt 0.002621 0.954104
vt 0.082131 0.909363
vt 0.319509 0.353762
vt 0.327890 0.565248
vt 0.467325 0.520255
vt 0.515741 0.460762
vt 0.865739 0.437873
vt 0.945188 0.437873
vt 0.372288 0.453385
vt 0.352386 0.453172
vt 0.372285 0.446903
vt 0.340570 0.353454
vt 0.335497 0.565509
vt 0.259811 0.349569
vt 0.320663 0.310365
vt 0.761702 0.329491
vt 0.798588 0.172762
vt 0.797177 0.329852
vt 0.551970 0.408060
vt 0.524579 0.449415
vt 0.353662 0.457778
vt 0.270380 0.762317
vt 0.413022 0.810344
vt 0.261125 0.807813
vt 0.260373 0.728029
vt 0.270282 0.751877
vt 0.528534 0.481101
vt 0.509501 0.524977
vt 0.509501 0.479473
vt 0.504462 0.524864
vt 0.504462 0.479361
vt 0.729973 0.371249
vt 0.642528 0.481733
vt 0.267353 0.300316
vt 0.263171 0.306275
vt 0.647946 0.286391
vt 0.551988 0.151708
vt 0.518644 0.122385
vt 0.559397 0.142550
vt 0.046295 0.249039
vt 0.027602 0.300917
vt 0.024350 0.249039
vt 0.587631 0.500754
vt 0.634627 0.623053
vt 0.579067 0.010140
vt 0.606139 0.047935
vt 0.018999 0.117186
vt 0.002001 0.002877
vt 0.028934 0.001412
vt 0.308475 0.697447
vt 0.404622 0.588647
vt 0.446716 0.697651
vt 0.500732 0.628761
vt 0.520818 0.736861
vt 0.500732 0.736861
vt 0.628840 0.842776
vt 0.612254 0.921857
vt 0.604309 0.842494
vt 0.210417 0.199806
vt 0.271220 0.204538
vt 0.697790 0.218943
vt 0.705998 0.302593
vt 0.697790 0.302846
vt 0.673519 0.911023
vt 0.713714 0.873678
vt 0.713254 0.914325
vt 0.424155 0.588946
vt 0.466246 0.697699
vt 0.399428 0.068709
vt 0.285795 0.075229
vt 0.297862 0.068690
vt 0.790307 0.473928
vt 0.424327 0.041387
vt 0.399401 0.047635
vt 0.018862 0.227542
vt 0.002138 0.117261
vt 0.197463 0.333726
vt 0.201979 0.301121
vt 0.202019 0.312960
vt 0.420762 0.739927
vt 0.325470 0.734399
vt 0.277547 0.066838
vt 0.802446 0.458149
vt 0.742309 0.355631
vt 0.285751 0.041387
vt 0.297835 0.047616
vt 0.735468 0.167819
vt 0.761169 0.160313
vt 0.767725 0.167819
vt 0.182365 0.196959
vt 0.220653 0.085095
vt 0.254202 0.087621
vt 0.258074 0.072271
vt 0.277525 0.049436
vt 0.485681 0.817877
vt 0.594803 0.780679
vt 0.617774 0.817671
vt 0.110638 0.798588
vt 0.001512 0.761389
vt 0.133610 0.761595
vt 0.742024 0.138390
vt 0.735468 0.130883
vt 0.761169 0.138390
vt 0.767725 0.130883
vt 0.159770 0.832516
vt 0.314420 0.814171
vt 0.314420 0.833309
vt 0.199931 0.034136
vt 0.227150 0.012154
vt 0.289343 0.648073
vt 0.265291 0.654901
vt 0.260299 0.648359
vt 0.621318 0.782896
vt 0.644271 0.817877
vt 0.119667 0.836786
vt 0.029441 0.830212
vt 0.144672 0.830212
vt 0.137149 0.796370
vt 0.160103 0.761389
vt 0.029416 0.864172
vt 0.119652 0.857934
vt 0.144647 0.864172
vt 0.140968 0.802794
vt 0.001685 0.825593
vt 0.001296 0.803669
vt 0.516712 0.083294
vt 0.655999 0.106093
vt 0.516323 0.105218
vt 0.289343 0.686423
vt 0.284351 0.654714
vt 0.260299 0.686708
vt 0.014703 0.855960
vt 0.001527 0.861119
vt 0.863547 0.518064
vt 0.845028 0.657774
vt 0.846068 0.518064
vt 0.265291 0.680067
vt 0.014715 0.838497
vt 0.001548 0.833075
vt 0.601919 0.922041
vt 0.463664 0.893719
vt 0.602762 0.841840
vt 0.852599 0.344611
vt 0.832512 0.206450
vt 0.852599 0.206450
vt 0.228222 0.664274
vt 0.256551 0.802526
vt 0.176348 0.803372
vt 0.208806 0.674728
vt 0.156937 0.806304
vt 0.474117 0.874301
vt 0.605692 0.822426
vt 0.770278 0.163961
vt 0.786634 0.081608
vt 0.798588 0.163961
vt 0.852599 0.358786
vt 0.832512 0.344611
vt 0.817877 0.343251
vt 0.800683 0.206990
vt 0.817877 0.206887
vt 0.228229 0.650091
vt 0.256544 0.664289
vt 0.750206 0.356218
vt 0.832512 0.358786
vt 0.273818 0.194337
vt 0.285485 0.276871
vt 0.271237 0.276871
vt 0.023752 0.100306
vt 0.032792 0.085077
vt 0.032792 0.100306
vt 0.870581 0.771382
vt 0.898893 0.791430
vt 0.870582 0.791458
vt 0.187539 0.023147
vt 0.208327 0.004153
vt 0.208327 0.021713
vt 0.275147 0.291519
vt 0.285486 0.297059
vt 0.271237 0.297059
vt 0.887020 0.873802
vt 0.281576 0.282411
vt 0.281576 0.291519
vt 0.267408 0.088454
vt 0.273912 0.165890
vt 0.267408 0.165890
vt 0.294521 0.390939
vt 0.300917 0.478381
vt 0.294521 0.478381
vt 0.351654 0.332751
vt 0.360715 0.408939
vt 0.351654 0.408930
vt 0.048808 0.505386
vt 0.057869 0.429199
vt 0.057869 0.505378
vt 0.273912 0.076764
vt 0.267408 0.076764
vt 0.892535 0.208089
vt 0.855242 0.240647
vt 0.879161 0.192697
vt 0.556989 0.005615
vt 0.576005 0.043150
vt 0.569886 0.048070
vt 0.295130 0.874466
vt 0.242797 0.968336
vt 0.242861 0.874913
vt 0.875582 0.242075
vt 0.872236 0.291469
vt 0.915849 0.180432
vt 0.627982 0.079087
vt 0.628850 0.071363
vt 0.874297 0.052359
vt 0.967818 0.104164
vt 0.873779 0.104164
vt 0.206447 0.967891
vt 0.673519 0.816295
vt 0.673989 0.873637
vt 0.691000 0.059937
vt 0.686172 0.053944
vt 0.461312 0.811522
vt 0.482239 0.812090
vt 0.470105 0.083883
vt 0.509855 0.131075
vt 0.495199 0.145459
vt 0.866561 0.606632
vt 0.906026 0.663561
vt 0.865978 0.663551
vt 0.305536 0.523084
vt 0.308700 0.483231
vt 0.420915 0.759099
vt 0.495901 0.022598
vt 0.490692 0.084054
vt 0.503052 0.084125
vt 0.906032 0.554680
vt 0.865978 0.554175
vt 0.967778 0.003829
vt 0.873726 0.002669
vt 0.519081 0.046044
vt 0.510391 0.037255
vt 0.183202 0.541374
vt 0.208691 0.543559
vt 0.557427 0.021310
vt 0.554351 0.001953
vt 0.551885 0.151785
vt 0.538410 0.165890
vt 0.720306 0.175188
vt 0.669104 0.261867
vt 0.229624 0.315112
vt 0.286995 0.734170
vt 0.871888 0.047013
vt 0.836091 0.202540
vt 0.837388 0.047108
vt 0.801834 0.201922
vt 0.797351 0.046454
vt 0.726464 0.329852
vt 0.761779 0.172387
vt 0.239163 0.337443
vt 0.257418 0.378866
vt 0.234570 0.387337
vt 0.310752 0.384365
vt 0.293408 0.383151
vt 0.717572 0.003935
vt 0.887627 0.278097
vt 0.920448 0.312491
vt 0.422801 0.585475
vt 0.338912 0.541139
vt 0.227617 0.416654
vt 0.176997 0.416254
vt 0.227617 0.327022
vt 0.924168 0.291272
vt 0.987625 0.202262
vt 0.985337 0.291272
vt 0.288875 0.287414
vt 0.289585 0.197784
vt 0.339496 0.287414
vt 0.173606 0.633716
vt 0.987625 0.897710
vt 0.954727 0.439939
vt 0.976052 0.467140
vt 0.954727 0.555539
vt 0.868921 0.524971
vt 0.868921 0.470507
vt 0.865192 0.408987
vt 0.160103 0.754740
vt 0.748015 0.579403
vt 0.163961 0.481290
vt 0.032945 0.303785
vt 0.300917 0.077362
vt 0.586403 0.154317
vt 0.628698 0.503806
vt 0.030935 0.001412
vt 0.341346 0.532392
vt 0.874363 0.187109
vt 0.077840 0.204538
vt 0.692495 0.694424
vt 0.270194 0.178641
vt 0.084585 0.015515
vt 0.057869 0.227617
vt 0.151598 0.333726
vt 0.147041 0.312960
vt 0.681157 0.648585
vt 0.765845 0.971818
vt 0.705998 0.572660
vt 0.184308 0.156245
vt 0.755602 0.647416
vt 0.806652 0.379371
vt 0.061021 0.158174
vt 0.094097 0.001530
vt 0.400398 0.822920
vt 0.318992 0.810853
vt 0.952904 0.106685
vt 0.021385 0.110439
vt 0.841025 0.694409
vt 0.757922 0.374303
vt 0.063562 0.163473
vt 0.034721 0.065787
vt 0.002551 0.568813
vt 0.158174 0.001882
vt 0.029655 0.671277
vt 0.001212 0.242770
vt 0.171068 0.487387
vt 0.010229 0.232731
vt 0.457747 0.121515
vt 0.495925 0.747111
vt 0.115747 0.967889
vt 0.869869 0.715920
vt 0.909322 0.559785
vt 0.146058 0.350307
vt 0.054960 0.906609
vt 0.038308 0.384365
vt 0.040361 0.483231
vt 0.045727 0.477890
vt 0.043524 0.523084
vt 0.165858 0.541374
vt 0.640517 0.110255
vt 0.119436 0.315112
vt 0.793493 0.852599
vt 0.542037 0.606425
vt 0.802711 0.855242
vt 0.913632 0.769737
vt 0.437050 0.496485
vt 0.476452 0.636555
vt 0.348664 0.460755
vt 0.257654 0.001171
vt 0.428210 0.089784
vt 0.360254 0.987625
vt 0.356857 0.912846
vt 0.913093 0.817820
vt 0.972106 0.817820
vt 0.715908 0.812359
vt 0.175454 0.633716
vt 0.002621 0.909283
vt 0.348177 0.353714
vt 0.270380 0.751762
vt 0.528534 0.526605
vt 0.316115 0.303785
vt 0.045724 0.300917
vt 0.628698 0.617480
vt 0.579067 0.002135
vt 0.307219 0.588647
vt 0.520818 0.628761
vt 0.628840 0.922041
vt 0.705998 0.218690
vt 0.424370 0.075229
vt 0.728580 0.551681
vt 0.002001 0.227617
vt 0.330307 0.740955
vt 0.742024 0.160313
vt 0.258038 0.044324
vt 0.662233 0.271172
vt 0.485384 0.780919
vt 0.001215 0.798348
vt 0.159770 0.815043
vt 0.035191 0.836772
vt 0.035176 0.857920
vt 0.156245 0.825593
vt 0.671277 0.083294
vt 0.254963 0.001530
vt 0.284351 0.679880
vt 0.864172 0.657774
vt 0.463680 0.922041
vt 0.771405 0.081608
vt 0.800683 0.343354
vt 0.256551 0.650106
vt 0.750206 0.347179
vt 0.282904 0.194337
vt 0.023752 0.085077
vt 0.898893 0.771354
vt 0.187539 0.001882
vt 0.871790 0.873817
vt 0.275147 0.282411
vt 0.273912 0.088454
vt 0.300917 0.390939
vt 0.360715 0.321463
vt 0.048808 0.417911
vt 0.563491 0.001959
vt 0.295067 0.967889
vt 0.925899 0.196936
vt 0.968336 0.052359
vt 0.206344 0.874466
vt 0.713243 0.816336
vt 0.906609 0.606642
vt 0.279906 0.538910
vt 0.303333 0.477890
vt 0.289024 0.539535
vt 0.559397 0.032895
vt 0.175455 0.298037
vt 0.871888 0.202441
vt 0.722876 0.172783
vt 0.710572 0.001959
vt 0.925899 0.293976
vt 0.338912 0.580147
vt 0.921880 0.202262
s 1
usemtl マテリアル
f 2/1/1 4/2/1 1/3/1
f 6/4/2 1/5/2 5/6/2
f 2/1/1 8/7/1 3/8/1
f 3/9/3 10/10/3 4/11/3
f 155/12/1 4/2/1 158/13/1
f 20/14/4 2/15/4 6/4/4
f 7/16/1 22/17/1 8/7/1
f 8/18/5 9/19/5 3/9/5
f 163/20/1 9/21/1 178/22/1
f 11/23/6 25/24/6 26/25/6
f 29/26/7 7/27/7 20/28/7
f 175/29/1 22/17/1 21/30/1
f 22/31/8 23/32/8 8/33/8
f 176/34/9 24/35/9 22/31/9
f 26/36/10 30/37/11 11/38/12
f 26/25/13 31/39/13 32/40/13
f 33/41/14 27/42/15 11/23/16
f 154/43/17 138/44/17 142/45/17
f 48/46/18 70/47/19 49/48/20
f 179/49/21 5/50/21 159/51/21
f 32/52/22 37/53/22 26/36/22
f 43/54/23 34/55/24 40/56/25
f 43/54/26 44/57/27 46/58/26
f 225/59/28 82/60/28 236/61/28
f 30/62/29 50/63/29 51/64/29
f 184/65/9 51/66/9 205/67/9
f 183/68/30 49/48/31 203/69/31
f 37/70/32 52/71/32 50/63/32
f 78/72/33 48/46/34 59/73/35
f 33/41/36 54/74/36 39/75/36
f 70/47/37 60/76/37 49/48/37
f 152/77/1 44/78/1 43/79/1
f 55/80/38 47/81/38 46/82/38
f 47/83/39 48/46/40 36/84/41
f 205/85/42 50/86/42 204/87/42
f 203/69/43 60/76/43 214/88/43
f 39/89/44 63/90/44 62/91/44
f 54/92/45 64/93/45 65/94/45
f 66/95/46 74/96/46 75/97/46
f 55/98/9 67/99/9 68/100/9
f 55/101/47 69/102/47 59/103/47
f 46/104/1 36/105/1 28/106/1
f 214/88/48 71/107/48 225/59/48
f 217/108/49 62/91/49 63/90/49
f 39/75/50 81/109/51 72/110/52
f 63/111/53 65/112/53 73/113/53
f 143/114/54 57/115/55 56/116/56
f 41/117/57 76/118/58 67/99/59
f 68/119/60 84/120/61 77/121/62
f 59/73/35 79/122/63 78/72/33
f 68/119/64 80/123/64 69/124/64
f 217/125/1 73/126/1 227/127/1
f 75/97/65 76/128/65 66/95/65
f 70/47/66 72/129/67 60/76/68
f 55/98/69 57/130/70 42/131/71
f 76/132/72 84/120/73 67/133/74
f 78/72/75 83/134/76 75/135/77
f 69/124/78 85/136/79 79/137/80
f 80/138/81 86/139/81 87/140/81
f 71/141/82 90/142/83 82/143/84
f 216/144/85 89/145/85 62/91/85
f 242/146/86 82/147/86 88/148/86
f 81/109/87 89/149/88 90/142/89
f 83/150/90 92/151/90 76/132/90
f 70/47/91 75/135/92 74/152/93
f 77/153/9 93/154/9 94/155/9
f 83/150/94 85/136/95 91/156/96
f 80/157/63 96/158/63 85/159/63
f 80/138/81 97/160/81 95/161/81
f 77/162/81 98/163/81 86/139/81
f 86/164/97 100/165/97 87/166/97
f 82/143/98 90/142/98 88/167/98
f 92/168/99 100/169/99 99/170/99
f 84/171/100 106/172/101 93/154/102
f 93/173/103 101/174/104 94/175/105
f 85/159/106 102/176/107 91/177/108
f 96/178/109 109/179/110 103/180/111
f 95/161/81 98/163/81 94/181/81
f 87/182/112 104/183/113 97/184/114
f 86/185/115 107/186/116 99/187/117
f 242/146/118 105/188/118 259/189/118
f 89/149/119 88/167/120 90/142/121
f 106/190/99 99/170/99 107/191/99
f 102/192/99 100/169/99 91/193/99
f 101/174/122 95/194/122 94/175/122
f 96/178/123 110/195/124 102/196/125
f 104/197/126 98/198/126 97/199/126
f 106/190/99 104/200/99 102/192/99
f 93/173/127 114/201/128 108/202/129
f 101/203/9 111/204/9 112/205/9
f 101/206/47 113/207/130 109/208/47
f 110/195/131 106/209/131 102/196/131
f 109/210/63 115/211/63 103/212/63
f 103/212/132 116/213/133 110/214/134
f 108/215/135 121/216/136 111/204/137
f 112/217/138 117/218/138 118/219/138
f 112/220/139 120/221/1 113/207/130
f 110/222/140 121/223/140 114/224/140
f 113/225/63 122/226/63 115/211/63
f 112/220/139 123/227/141 119/228/142
f 124/229/143 117/230/143 111/231/143
f 117/232/9 123/233/9 118/234/9
f 124/235/144 120/236/144 119/237/144
f 116/238/145 111/239/145 121/240/145
f 122/241/45 127/242/45 115/243/45
f 119/237/146 125/244/146 124/235/146
f 111/231/45 129/245/45 124/229/45
f 124/229/45 126/246/45 122/241/45
f 111/231/45 127/242/45 128/247/45
f 126/248/63 131/249/63 127/250/63
f 128/251/9 133/252/9 129/253/9
f 129/254/144 130/255/144 126/256/144
f 128/257/147 131/258/147 132/259/147
f 131/249/148 133/260/148 132/261/148
f 137/262/45 135/263/45 134/264/45
f 57/265/149 136/266/149 58/267/149
f 136/268/150 137/269/150 134/270/150
f 141/271/45 138/272/45 137/262/45
f 42/273/45 135/263/45 40/274/45
f 136/266/151 144/275/151 140/276/151
f 140/277/152 141/278/152 137/279/152
f 58/280/153 134/270/153 42/281/153
f 143/114/150 144/282/150 139/283/150
f 140/276/154 147/284/154 145/285/154
f 66/286/155 35/287/156 61/288/157
f 146/289/158 148/290/158 149/291/158
f 146/292/152 147/293/152 144/294/152
f 5/6/159 16/295/159 17/296/160
f 40/56/161 34/55/162 35/287/163
f 150/297/164 149/291/164 151/298/164
f 148/290/1 153/299/1 149/291/1
f 147/293/165 15/300/165 14/301/165
f 141/278/166 13/302/166 12/303/166
f 149/291/1 154/304/1 151/298/1
f 28/305/167 6/4/168 34/306/169
f 16/307/1 154/304/1 17/308/1
f 151/298/170 15/309/171 150/297/172
f 56/310/173 45/311/174 148/290/175
f 60/312/176 81/109/177 71/141/178
f 35/313/179 27/42/180 39/75/181
f 56/314/182 46/58/182 45/315/182
f 153/316/183 135/317/183 138/318/183
f 152/319/184 40/320/185 135/317/186
f 17/321/187 142/45/188 18/322/189
f 19/323/190 35/313/191 34/306/192
f 18/324/193 11/23/194 27/42/195
f 14/325/196 145/285/197 147/284/198
f 12/326/45 142/327/45 141/271/45
f 207/328/45 64/93/45 53/329/45
f 187/330/199 53/331/199 33/332/199
f 183/68/30 21/333/63 29/26/30
f 204/87/200 52/334/200 206/335/200
f 192/336/63 52/337/63 38/338/63
f 186/339/201 38/340/201 32/52/201
f 186/341/202 31/342/202 185/343/202
f 179/49/203 31/344/203 25/345/203
f 158/346/63 10/347/63 164/348/63
f 159/349/9 1/350/9 155/351/9
f 30/352/204 184/65/205 187/330/206
f 158/13/1 156/353/1 155/12/1
f 155/354/207 160/355/207 159/356/207
f 156/353/1 162/357/1 161/358/1
f 164/359/208 157/360/208 158/361/208
f 156/362/209 174/363/209 160/355/209
f 161/358/1 176/364/1 175/29/1
f 163/365/210 162/366/210 157/360/210
f 165/367/211 179/368/211 159/356/211
f 161/369/212 183/68/212 174/370/212
f 177/371/213 176/34/213 162/372/213
f 184/373/214 180/374/215 165/375/12
f 180/376/216 185/377/216 179/368/216
f 181/378/217 187/379/218 165/367/219
f 308/380/220 292/381/220 307/382/220
f 202/383/221 190/384/222 183/68/223
f 191/385/224 186/339/224 180/374/224
f 197/386/225 188/387/226 182/388/227
f 200/389/228 198/390/229 197/386/228
f 184/391/230 204/392/230 191/393/230
f 191/393/231 206/394/231 192/395/231
f 202/383/232 232/396/233 213/397/234
f 208/398/235 187/379/235 193/399/235
f 224/400/236 203/69/236 214/88/236
f 198/401/1 306/402/1 197/403/1
f 209/404/237 201/405/237 213/406/237
f 202/383/238 201/407/239 190/384/240
f 217/108/241 193/408/241 216/144/241
f 208/409/45 218/410/45 207/328/45
f 220/411/242 228/412/242 215/413/242
f 209/414/9 221/415/9 195/416/9
f 223/417/243 209/418/243 213/419/243
f 190/420/1 200/421/1 182/422/1
f 193/399/244 235/423/245 216/424/246
f 217/425/247 219/426/247 208/427/247
f 211/428/248 297/429/249 210/430/250
f 195/416/251 230/431/252 220/432/253
f 222/433/254 238/434/255 221/435/256
f 233/436/63 213/397/234 232/396/233
f 234/437/257 222/433/257 223/438/257
f 230/439/258 229/440/258 220/411/258
f 224/441/259 226/442/260 228/443/261
f 196/444/262 211/445/263 209/414/264
f 238/434/265 230/446/266 221/435/267
f 237/447/268 232/396/269 229/448/270
f 239/449/271 223/438/272 233/450/273
f 234/451/274 240/452/274 231/453/274
f 225/454/275 244/455/276 235/423/277
f 235/423/278 243/456/279 216/424/280
f 246/457/281 237/458/281 230/446/281
f 224/400/282 229/448/283 232/396/284
f 231/459/9 247/460/9 238/461/9
f 237/458/285 239/449/286 233/450/287
f 250/462/63 234/463/63 239/464/63
f 251/465/274 234/451/274 249/466/274
f 231/453/274 252/467/274 248/468/274
f 254/469/288 240/470/288 241/471/288
f 236/472/289 242/473/289 244/455/289
f 246/474/290 254/475/290 245/476/290
f 238/461/291 260/477/292 246/478/293
f 255/479/294 247/480/295 248/481/296
f 256/482/297 239/464/298 245/483/299
f 250/484/300 263/485/301 249/486/302
f 252/467/274 249/466/274 248/468/274
f 258/487/303 241/488/304 251/489/114
f 240/490/305 261/491/306 252/492/307
f 242/473/308 243/456/309 244/455/310
f 260/493/290 253/494/290 246/474/290
f 254/475/290 256/495/290 245/476/290
f 255/479/311 249/486/311 263/485/311
f 264/496/312 250/484/313 256/497/314
f 258/498/315 252/499/315 261/500/315
f 258/501/290 260/493/290 256/495/290
f 247/480/316 268/502/317 260/503/318
f 255/504/9 265/505/9 262/506/9
f 267/507/319 255/508/243 263/509/243
f 264/496/320 260/503/320 268/502/320
f 269/510/63 263/511/63 257/512/63
f 270/513/321 257/512/322 264/514/323
f 262/506/324 275/515/325 268/516/326
f 266/517/146 271/518/146 265/519/146
f 274/520/1 266/521/327 267/507/319
f 275/522/328 264/523/328 268/524/328
f 276/525/63 267/526/63 269/510/63
f 277/527/141 266/521/327 273/528/142
f 271/529/143 278/530/143 265/531/143
f 277/532/9 271/533/9 272/534/9
f 274/535/147 278/536/147 273/537/147
f 265/538/329 270/539/329 275/540/329
f 281/541/45 276/542/45 269/543/45
f 279/544/138 273/537/138 278/536/138
f 283/545/45 265/531/45 278/530/45
f 280/546/45 278/530/45 276/542/45
f 265/531/45 281/541/45 269/543/45
f 285/547/63 280/548/63 281/549/63
f 287/550/9 282/551/9 283/552/9
f 284/553/147 283/554/147 280/555/147
f 282/556/144 285/557/144 281/558/144
f 287/559/148 285/547/148 286/560/148
f 289/561/45 291/562/45 288/563/45
f 211/564/330 290/565/330 293/566/330
f 291/567/331 290/568/331 288/569/331
f 292/570/45 295/571/45 291/562/45
f 196/572/45 289/561/45 288/563/45
f 298/573/332 290/565/332 294/574/332
f 295/575/333 294/576/333 291/577/333
f 212/578/334 288/569/334 290/568/334
f 298/579/331 297/429/331 293/580/331
f 301/581/335 294/574/335 299/582/335
f 189/583/336 220/432/337 215/584/338
f 300/585/339 302/586/339 297/587/339
f 301/588/333 300/589/333 298/590/333
f 169/591/340 168/592/340 159/356/340
f 189/583/341 188/387/342 194/593/343
f 304/594/344 303/595/344 300/585/344
f 307/596/1 302/586/1 303/595/1
f 169/597/345 301/588/345 168/598/345
f 167/599/346 295/575/346 166/600/346
f 308/601/1 303/595/1 305/602/1
f 174/363/347 190/603/347 182/604/348
f 170/605/1 308/601/1 305/602/1
f 305/602/349 169/606/350 170/605/351
f 302/586/352 199/607/353 210/608/354
f 214/88/355 235/609/356 226/610/357
f 193/399/358 215/611/359 226/442/360
f 210/612/361 200/389/361 209/414/361
f 307/613/362 289/614/362 306/615/362
f 306/615/363 194/616/364 197/617/365
f 171/618/366 296/619/367 308/380/368
f 189/620/369 173/621/370 188/622/371
f 165/367/372 166/623/373 172/624/374
f 299/582/375 168/625/376 301/581/377
f 296/626/45 166/627/45 295/571/45
f 243/628/378 105/629/378 89/145/378
f 65/630/379 64/631/379 73/632/379
f 218/633/380 73/634/380 64/635/380
f 219/636/381 227/637/381 218/638/381
f 2/1/1 3/8/1 4/2/1
f 6/4/2 2/15/2 1/5/2
f 2/1/1 7/16/1 8/7/1
f 3/9/3 9/19/3 10/10/3
f 155/12/1 1/3/1 4/2/1
f 20/14/4 7/639/4 2/15/4
f 7/16/1 21/30/1 22/17/1
f 8/18/5 23/640/5 9/19/5
f 23/641/1 24/642/1 9/21/1
f 24/642/1 178/22/1 9/21/1
f 178/22/1 177/643/1 163/20/1
f 163/20/1 164/644/1 10/645/1
f 10/645/1 9/21/1 163/20/1
f 11/23/6 5/6/6 25/24/6
f 29/26/7 21/333/7 7/27/7
f 175/29/1 176/364/1 22/17/1
f 22/31/8 24/35/8 23/32/8
f 176/34/9 178/646/9 24/35/9
f 26/36/10 37/53/382 30/37/11
f 26/25/13 25/24/13 31/39/13
f 33/41/14 39/75/383 27/42/15
f 154/43/17 153/647/17 138/44/17
f 49/48/20 29/26/384 48/46/18
f 29/26/384 20/28/385 36/84/386
f 48/46/18 29/26/384 36/84/386
f 179/49/21 25/345/21 5/50/21
f 32/52/22 38/340/22 37/53/22
f 43/54/23 28/648/387 34/55/24
f 46/58/26 28/648/26 43/54/26
f 44/57/27 45/315/388 46/58/26
f 225/59/28 71/107/28 82/60/28
f 30/62/29 37/70/29 50/63/29
f 184/65/9 30/352/9 51/66/9
f 183/68/30 29/26/30 49/48/31
f 37/70/32 38/649/32 52/71/32
f 78/72/33 70/47/389 48/46/34
f 33/41/36 53/650/36 54/74/36
f 152/77/1 148/290/1 44/78/1
f 55/80/38 59/651/38 47/81/38
f 47/83/39 59/73/390 48/46/40
f 205/85/42 51/652/42 50/86/42
f 203/69/43 49/48/43 60/76/43
f 39/89/44 54/653/44 63/90/44
f 54/92/45 53/329/45 64/93/45
f 66/95/46 61/654/46 74/96/46
f 55/98/9 41/117/9 67/99/9
f 55/101/47 68/655/47 69/102/47
f 46/104/1 47/656/1 36/105/1
f 214/88/48 60/76/48 71/107/48
f 217/108/49 216/144/49 62/91/49
f 39/75/50 62/657/391 81/109/51
f 63/111/53 54/658/53 65/112/53
f 143/114/54 139/283/153 57/115/55
f 41/117/57 66/286/392 76/118/58
f 68/119/60 67/133/393 84/120/61
f 59/73/35 69/659/63 79/122/63
f 68/119/64 77/121/64 80/123/64
f 217/125/1 63/660/1 73/126/1
f 75/97/65 83/661/65 76/128/65
f 70/662/66 74/663/394 72/110/67
f 42/131/71 41/117/395 55/98/69
f 55/98/69 56/314/396 57/130/70
f 57/130/70 58/664/397 42/131/71
f 76/132/72 92/151/398 84/120/73
f 78/72/75 79/122/399 83/134/76
f 69/124/78 80/123/400 85/136/79
f 80/138/81 77/162/81 86/139/81
f 71/141/82 81/109/401 90/142/83
f 216/144/85 243/628/85 89/145/85
f 242/146/86 236/665/86 82/147/86
f 81/109/87 62/657/402 89/149/88
f 83/150/90 91/156/90 92/151/90
f 70/47/91 78/72/403 75/135/92
f 77/153/9 84/171/9 93/154/9
f 83/150/94 79/137/404 85/136/95
f 80/157/63 95/666/63 96/158/63
f 80/138/81 87/140/81 97/160/81
f 77/162/81 94/181/81 98/163/81
f 86/164/97 99/667/97 100/165/97
f 92/168/99 91/193/99 100/169/99
f 84/171/100 92/668/405 106/172/101
f 93/173/103 108/202/406 101/174/104
f 85/159/106 96/158/407 102/176/107
f 96/178/109 95/194/408 109/179/110
f 95/161/81 97/160/81 98/163/81
f 87/182/112 100/669/409 104/183/113
f 86/185/115 98/670/307 107/186/116
f 242/146/118 88/148/118 105/188/118
f 89/149/119 105/671/410 88/167/120
f 106/190/99 92/168/99 99/170/99
f 102/192/99 104/200/99 100/169/99
f 101/174/122 109/179/122 95/194/122
f 96/178/123 103/180/411 110/195/124
f 104/197/126 107/672/126 98/198/126
f 106/190/99 107/191/99 104/200/99
f 93/173/127 106/209/412 114/201/128
f 101/203/9 108/215/9 111/204/9
f 101/206/47 112/220/139 113/207/130
f 110/195/131 114/201/131 106/209/131
f 109/210/63 113/225/63 115/211/63
f 103/212/132 115/211/413 116/213/133
f 108/215/135 114/673/414 121/216/136
f 112/217/138 111/674/138 117/218/138
f 112/220/139 119/228/142 120/221/1
f 110/222/140 116/675/140 121/223/140
f 113/225/63 120/676/63 122/226/63
f 112/220/139 118/677/141 123/227/141
f 124/229/143 125/678/143 117/230/143
f 117/232/9 125/679/9 123/233/9
f 124/235/144 122/680/144 120/236/144
f 116/238/145 115/681/145 111/239/145
f 122/241/45 126/246/45 127/242/45
f 119/237/146 123/682/146 125/244/146
f 111/231/45 128/247/45 129/245/45
f 124/229/45 129/245/45 126/246/45
f 111/231/45 115/243/45 127/242/45
f 126/248/63 130/683/63 131/249/63
f 128/251/9 132/684/9 133/252/9
f 129/254/144 133/685/144 130/255/144
f 128/257/147 127/686/147 131/258/147
f 131/249/148 130/683/148 133/260/148
f 137/262/45 138/272/45 135/263/45
f 57/265/149 139/687/149 136/266/149
f 136/268/150 140/688/150 137/269/150
f 141/271/45 142/327/45 138/272/45
f 42/273/45 134/264/45 135/263/45
f 136/266/151 139/687/151 144/275/151
f 140/277/152 145/689/152 141/278/152
f 58/280/153 136/268/153 134/270/153
f 143/114/150 146/690/150 144/282/150
f 140/276/154 144/275/154 147/284/154
f 66/286/155 41/117/415 35/287/156
f 146/289/158 143/691/158 148/290/158
f 146/292/152 150/692/152 147/293/152
f 11/23/159 12/693/159 14/694/159
f 12/693/159 13/695/159 14/694/159
f 18/324/416 19/323/417 17/296/160
f 19/323/417 6/4/418 17/296/160
f 5/6/159 11/23/159 14/694/159
f 5/6/159 14/694/159 15/696/159
f 17/296/160 6/4/418 5/6/159
f 5/6/159 15/696/159 16/295/159
f 35/287/163 41/117/395 40/56/161
f 41/117/395 42/131/71 40/56/161
f 150/297/164 146/289/164 149/291/164
f 148/290/1 152/77/1 153/299/1
f 147/293/165 150/692/165 15/300/165
f 141/278/166 145/689/166 13/302/166
f 149/291/1 153/299/1 154/304/1
f 28/305/167 36/697/419 20/14/419
f 6/4/168 19/323/420 34/306/169
f 28/305/167 20/14/419 6/4/168
f 16/307/1 151/298/1 154/304/1
f 151/298/170 16/307/421 15/309/171
f 148/290/175 143/691/422 56/310/173
f 45/311/174 44/78/423 148/290/175
f 60/76/176 72/129/424 81/698/177
f 39/75/181 72/110/425 61/699/426
f 72/110/425 74/663/427 61/699/426
f 61/699/426 35/313/179 39/75/181
f 56/314/182 55/98/182 46/58/182
f 153/316/183 152/319/183 135/317/183
f 152/319/184 43/700/428 40/320/185
f 17/321/187 154/43/429 142/45/188
f 19/323/190 27/42/430 35/313/191
f 27/42/195 19/323/195 18/324/193
f 18/324/193 12/693/431 11/23/194
f 14/325/196 13/701/432 145/285/197
f 12/326/45 18/702/45 142/327/45
f 207/328/45 218/410/45 64/93/45
f 187/330/199 207/703/199 53/331/199
f 183/68/30 175/704/63 21/333/63
f 204/87/200 50/86/200 52/334/200
f 192/336/63 206/705/63 52/337/63
f 186/339/201 192/706/201 38/340/201
f 186/341/202 32/707/202 31/342/202
f 179/49/203 185/708/203 31/344/203
f 158/346/63 4/709/63 10/347/63
f 159/349/9 5/710/9 1/350/9
f 184/65/205 165/711/433 187/330/206
f 187/330/206 33/332/206 30/352/204
f 33/332/206 11/712/434 30/352/204
f 158/13/1 157/713/1 156/353/1
f 155/354/207 156/362/207 160/355/207
f 156/353/1 157/713/1 162/357/1
f 164/359/208 163/365/208 157/360/208
f 156/362/209 161/714/209 174/363/209
f 161/358/1 162/357/1 176/364/1
f 163/365/210 177/715/210 162/366/210
f 165/367/211 180/376/211 179/368/211
f 161/369/212 175/704/212 183/68/212
f 177/371/213 178/646/213 176/34/213
f 184/373/214 191/385/435 180/374/215
f 180/376/216 186/716/216 185/377/216
f 181/378/217 193/399/436 187/379/218
f 308/380/220 296/619/220 292/381/220
f 174/370/437 183/68/223 190/384/222
f 183/68/223 203/69/438 202/383/221
f 203/69/438 224/400/439 202/383/221
f 191/385/224 192/706/224 186/339/224
f 197/386/225 194/593/440 188/387/226
f 197/386/228 182/388/228 200/389/228
f 200/389/228 199/717/441 198/390/229
f 184/391/230 205/718/230 204/392/230
f 191/393/231 204/392/231 206/394/231
f 202/383/232 224/400/442 232/396/233
f 208/398/235 207/719/235 187/379/235
f 198/401/1 302/586/1 306/402/1
f 209/404/237 200/720/237 201/405/237
f 202/383/238 213/397/443 201/407/239
f 217/108/241 208/721/241 193/408/241
f 208/409/45 219/722/45 218/410/45
f 220/411/242 229/440/242 228/412/242
f 209/414/9 222/723/9 221/415/9
f 223/417/243 222/724/243 209/418/243
f 190/420/1 201/725/1 200/421/1
f 193/399/244 226/442/444 235/423/245
f 217/425/247 227/726/247 219/426/247
f 211/428/248 293/580/334 297/429/249
f 195/416/251 221/415/445 230/431/252
f 222/433/254 231/727/446 238/434/255
f 233/436/63 223/728/63 213/397/234
f 234/437/257 231/727/257 222/433/257
f 230/439/258 237/729/258 229/440/258
f 224/400/259 214/88/447 226/610/260
f 209/414/264 195/416/448 196/444/262
f 196/444/262 212/730/449 211/445/263
f 211/445/263 210/612/450 209/414/264
f 238/434/265 246/457/451 230/446/266
f 237/447/268 233/436/452 232/396/269
f 239/449/271 234/437/453 223/438/272
f 234/451/274 241/731/274 240/452/274
f 225/454/275 236/472/454 244/455/276
f 235/423/278 244/455/455 243/456/279
f 246/457/281 245/732/281 237/458/281
f 224/400/282 228/733/456 229/448/283
f 231/459/9 248/734/9 247/460/9
f 237/458/285 245/732/457 239/449/286
f 250/462/63 249/735/63 234/463/63
f 251/465/274 241/731/274 234/451/274
f 231/453/274 240/452/274 252/467/274
f 254/469/288 253/736/288 240/470/288
f 246/474/290 253/494/290 254/475/290
f 238/461/291 247/460/458 260/477/292
f 255/479/294 262/737/459 247/480/295
f 256/482/297 250/462/460 239/464/298
f 250/484/300 257/738/461 263/485/301
f 252/467/274 251/465/274 249/466/274
f 258/487/303 254/739/462 241/488/304
f 240/490/305 253/740/463 261/491/306
f 242/473/308 259/741/464 243/456/309
f 260/493/290 261/742/290 253/494/290
f 254/475/290 258/501/290 256/495/290
f 255/479/311 248/481/311 249/486/311
f 264/496/312 257/738/465 250/484/313
f 258/498/315 251/743/315 252/499/315
f 258/501/290 261/742/290 260/493/290
f 247/480/316 262/737/466 268/502/317
f 255/504/9 266/744/9 265/505/9
f 267/507/319 266/521/327 255/508/243
f 264/496/320 256/497/320 260/503/320
f 269/510/63 267/526/63 263/511/63
f 270/513/321 269/510/467 257/512/322
f 262/506/324 265/505/468 275/515/325
f 266/517/146 272/745/146 271/518/146
f 274/520/1 273/528/142 266/521/327
f 275/522/328 270/746/328 264/523/328
f 276/525/63 274/747/63 267/526/63
f 277/527/141 272/748/141 266/521/327
f 271/529/143 279/749/143 278/530/143
f 277/532/9 279/750/9 271/533/9
f 274/535/147 276/751/147 278/536/147
f 265/538/329 269/752/329 270/539/329
f 281/541/45 280/546/45 276/542/45
f 279/544/138 277/753/138 273/537/138
f 283/545/45 282/754/45 265/531/45
f 280/546/45 283/545/45 278/530/45
f 265/531/45 282/754/45 281/541/45
f 285/547/63 284/755/63 280/548/63
f 287/550/9 286/756/9 282/551/9
f 284/553/147 287/757/147 283/554/147
f 282/556/144 286/758/144 285/557/144
f 287/559/148 284/755/148 285/547/148
f 289/561/45 292/570/45 291/562/45
f 211/564/330 212/759/330 290/565/330
f 291/567/331 294/760/331 290/568/331
f 292/570/45 296/626/45 295/571/45
f 196/572/45 194/761/45 289/561/45
f 298/573/332 293/566/332 290/565/332
f 295/575/333 299/762/333 294/576/333
f 212/578/334 196/763/334 288/569/334
f 298/579/331 300/764/331 297/429/331
f 301/581/335 298/573/335 294/574/335
f 189/583/336 195/416/469 220/432/337
f 300/585/339 303/595/339 302/586/339
f 301/588/333 304/765/333 300/589/333
f 160/355/470 173/621/471 171/766/472
f 173/621/471 172/624/473 171/766/472
f 167/767/340 166/623/340 168/592/340
f 166/623/340 165/367/340 168/592/340
f 159/356/340 160/355/470 171/766/472
f 159/356/340 171/766/472 170/768/340
f 168/592/340 165/367/340 159/356/340
f 159/356/340 170/768/340 169/591/340
f 196/444/262 195/416/448 194/593/343
f 195/416/448 189/583/341 194/593/343
f 304/594/344 305/602/344 303/595/344
f 307/596/1 306/402/1 302/586/1
f 169/597/345 304/765/345 301/588/345
f 167/599/346 299/762/346 295/575/346
f 308/601/1 307/596/1 303/595/1
f 182/604/348 188/622/474 160/355/475
f 188/622/474 173/621/476 160/355/475
f 160/355/475 174/363/347 182/604/348
f 170/605/1 171/769/1 308/601/1
f 305/602/349 304/594/477 169/606/350
f 210/608/354 297/587/478 302/586/352
f 302/586/352 198/401/479 199/607/353
f 214/770/355 225/454/480 235/423/356
f 193/399/358 181/378/481 189/620/482
f 215/611/359 228/443/483 226/442/360
f 193/399/358 189/620/482 215/611/359
f 210/612/361 199/717/361 200/389/361
f 307/613/362 292/771/362 289/614/362
f 306/615/363 289/614/484 194/616/364
f 171/618/366 172/772/485 296/619/367
f 189/620/369 181/378/486 173/621/370
f 172/624/374 173/621/487 181/378/487
f 181/378/487 165/367/372 172/624/374
f 299/582/375 167/773/488 168/625/376
f 296/626/45 172/774/45 166/627/45
f 243/628/378 259/775/378 105/629/378
f 218/633/380 227/776/380 73/634/380
